<?xml version="1.0" encoding="UTF-8" standalone="no"?>
<!DOCTYPE svg PUBLIC "-//W3C//DTD SVG 1.1//EN" "http://www.w3.org/Graphics/SVG/1.1/DTD/svg11.dtd"><svg width="120"
    height="45" viewBox="0 0 601 227" version="1.1" xmlns="http://www.w3.org/2000/svg"
    xmlns:xlink="http://www.w3.org/1999/xlink" xml:space="preserve" xmlns:serif="http://www.serif.com/"
    style="fill-rule:evenodd;clip-rule:evenodd;stroke-linejoin:round;stroke-miterlimit:2;">
    <rect id="Artboard1" x="0" y="0" width="600.641" height="226.793" style="fill:none;" />
    <path fill="currentColor"
        d="M280.583,153.229l-16.927,0l-27.12,-78.327l17.877,-0l17.7,59.576l17.766,-59.576l17.951,-0l-27.247,78.327Zm44.756,-24.338c0.157,1.294 0.427,2.523 0.81,3.686c0.65,1.971 1.597,3.671 2.842,5.098c1.246,1.428 2.753,2.541 4.523,3.338c1.769,0.797 3.786,1.196 6.05,1.196c2.81,-0 5.422,-0.548 7.837,-1.642c2.414,-1.094 4.5,-2.758 6.256,-4.99l7.52,8.177c-1.207,1.756 -2.858,3.445 -4.953,5.07c-2.094,1.624 -4.616,2.944 -7.565,3.959c-2.949,1.015 -6.306,1.522 -10.07,1.522c-4.514,0 -8.564,-0.727 -12.15,-2.18c-3.585,-1.454 -6.625,-3.472 -9.121,-6.056c-2.495,-2.583 -4.4,-5.584 -5.716,-9.003c-1.316,-3.419 -1.974,-7.075 -1.974,-10.969l-0,-2.114c-0,-4.418 0.626,-8.459 1.879,-12.122c1.253,-3.664 3.057,-6.835 5.411,-9.514c2.354,-2.68 5.214,-4.75 8.578,-6.21c3.365,-1.461 7.153,-2.191 11.364,-2.191c4.136,-0 7.798,0.68 10.987,2.042c3.189,1.362 5.867,3.295 8.034,5.798c2.168,2.504 3.809,5.504 4.923,9.001c1.115,3.498 1.672,7.388 1.672,11.671l0,6.433l-37.137,0Zm0.193,-10.31l21.743,0l-0,-1.191c-0.022,-2.145 -0.418,-4.072 -1.186,-5.782c-0.769,-1.709 -1.921,-3.061 -3.456,-4.056c-1.535,-0.995 -3.496,-1.493 -5.882,-1.493c-2.065,0 -3.836,0.445 -5.311,1.335c-1.476,0.89 -2.67,2.14 -3.583,3.75c-0.914,1.609 -1.589,3.504 -2.026,5.684c-0.115,0.57 -0.214,1.154 -0.299,1.753Zm110.116,28.412c-1.673,2.162 -3.644,3.878 -5.913,5.148c-2.579,1.443 -5.594,2.164 -9.045,2.164c-3.602,0 -6.81,-0.735 -9.625,-2.205c-2.816,-1.471 -5.188,-3.533 -7.117,-6.187c-1.929,-2.654 -3.398,-5.777 -4.407,-9.369c-1.008,-3.593 -1.513,-7.505 -1.513,-11.737l0,-1.13c0,-4.422 0.505,-8.454 1.513,-12.094c1.009,-3.64 2.484,-6.775 4.425,-9.406c1.942,-2.63 4.326,-4.66 7.153,-6.088c2.828,-1.429 6.054,-2.143 9.679,-2.143c3.415,-0 6.403,0.721 8.964,2.165c1.908,1.074 3.606,2.477 5.097,4.208l-0,-29.721l15.583,-0l0,82.631l-14.03,0l-0.764,-6.236Zm-0.789,-34.642c-0.381,-0.792 -0.821,-1.516 -1.318,-2.172c-0.982,-1.295 -2.201,-2.293 -3.659,-2.996c-1.458,-0.703 -3.175,-1.054 -5.151,-1.054c-2.022,-0 -3.742,0.449 -5.162,1.348c-1.42,0.899 -2.576,2.144 -3.467,3.734c-0.89,1.59 -1.54,3.448 -1.95,5.575c-0.409,2.127 -0.614,4.424 -0.614,6.891l0,1.13c0,2.419 0.193,4.671 0.578,6.756c0.385,2.084 1.017,3.919 1.895,5.504c0.879,1.584 2.026,2.82 3.44,3.707c1.414,0.887 3.138,1.33 5.172,1.33c2.643,0 4.825,-0.602 6.546,-1.806c1.562,-1.093 2.792,-2.566 3.69,-4.418l-0,-23.529Zm43.128,2.505l-0,38.373l-15.494,0l0,-58.208l14.605,0l0.499,7.144c0.15,-0.268 0.304,-0.531 0.462,-0.789c1.446,-2.361 3.229,-4.189 5.349,-5.485c2.119,-1.297 4.55,-1.945 7.293,-1.945c0.839,-0 1.707,0.062 2.603,0.187c0.896,0.125 1.632,0.289 2.209,0.493l-0.236,14.393c-0.751,-0.107 -1.659,-0.205 -2.722,-0.295c-1.063,-0.091 -2.025,-0.136 -2.884,-0.136c-2.174,0 -4.061,0.28 -5.661,0.839c-1.599,0.559 -2.929,1.369 -3.991,2.429c-0.847,0.846 -1.524,1.846 -2.032,3Zm89.194,32.137c-1.673,2.162 -3.644,3.878 -5.913,5.148c-2.579,1.443 -5.595,2.164 -9.045,2.164c-3.602,0 -6.81,-0.735 -9.626,-2.205c-2.815,-1.471 -5.188,-3.533 -7.117,-6.187c-1.929,-2.654 -3.398,-5.777 -4.406,-9.369c-1.009,-3.593 -1.513,-7.505 -1.513,-11.737l-0,-1.13c-0,-4.422 0.504,-8.454 1.513,-12.094c1.008,-3.64 2.483,-6.775 4.425,-9.406c1.941,-2.63 4.326,-4.66 7.153,-6.088c2.827,-1.429 6.054,-2.143 9.678,-2.143c3.415,-0 6.403,0.721 8.965,2.165c1.907,1.074 3.606,2.477 5.096,4.208l0,-29.721l15.584,-0l-0,82.631l-14.03,0l-0.764,-6.236Zm-0.79,-34.642c-0.381,-0.792 -0.82,-1.516 -1.318,-2.172c-0.981,-1.295 -2.201,-2.293 -3.659,-2.996c-1.458,-0.703 -3.175,-1.054 -5.151,-1.054c-2.021,-0 -3.742,0.449 -5.162,1.348c-1.42,0.899 -2.575,2.144 -3.466,3.734c-0.891,1.59 -1.541,3.448 -1.95,5.575c-0.409,2.127 -0.614,4.424 -0.614,6.891l-0,1.13c-0,2.419 0.192,4.671 0.577,6.756c0.386,2.084 1.018,3.919 1.896,5.504c0.879,1.584 2.025,2.82 3.44,3.707c1.414,0.887 3.138,1.33 5.172,1.33c2.643,0 4.825,-0.602 6.545,-1.806c1.562,-1.093 2.792,-2.566 3.69,-4.418l0,-23.529Zm-178.729,-41.753l0,82.631l-15.547,0l0,-82.631l15.547,-0Zm131.533,24.423l-0,58.208l-15.547,0l-0,-58.208l15.547,0Zm-16.519,-15.147c-0,-2.271 0.791,-4.144 2.372,-5.62c1.582,-1.476 3.694,-2.215 6.335,-2.215c2.63,0 4.742,0.739 6.335,2.215c1.593,1.476 2.39,3.349 2.39,5.62c-0,2.247 -0.797,4.105 -2.39,5.576c-1.593,1.47 -3.705,2.206 -6.335,2.206c-2.641,-0 -4.753,-0.736 -6.335,-2.206c-1.581,-1.471 -2.372,-3.329 -2.372,-5.576Z" />
    <g>
        <path
            d="M204.503,154.292c-15.849,34.314 -50.577,58.15 -90.828,58.15c-55.186,-0 -99.99,-44.804 -99.99,-99.99c-0,-55.186 44.804,-99.99 99.99,-99.99c49.148,-0 90.061,35.536 98.426,82.294c-2.129,-0.54 -4.396,-0.81 -6.801,-0.81c-3.91,-0 -7.46,0.726 -10.652,2.178c-3.192,1.453 -5.922,3.493 -8.191,6.12c-2.268,2.627 -4.016,5.729 -5.245,9.306c-1.228,3.578 -1.842,7.483 -1.842,11.715l-0,1.748c-0,4.232 0.614,8.132 1.842,11.701c1.229,3.568 2.986,6.666 5.272,9.293c2.287,2.627 5.026,4.667 8.218,6.12c2.946,1.34 6.213,2.062 9.801,2.165Zm7.598,-59.536c1.362,0.345 2.668,0.801 3.918,1.368c3.2,1.453 5.944,3.493 8.23,6.12c2.287,2.627 4.04,5.729 5.259,9.306c1.219,3.578 1.829,7.483 1.829,11.715l0,1.748c0,4.232 -0.61,8.132 -1.829,11.701c-1.219,3.568 -2.968,6.666 -5.245,9.293c-2.277,2.627 -5.008,4.667 -8.191,6.12c-3.183,1.452 -6.738,2.178 -10.665,2.178c-0.303,0 -0.605,-0.004 -0.904,-0.013c0.845,-1.829 1.636,-3.688 2.372,-5.576c2.544,-0.168 4.834,-0.785 6.871,-1.848c2.421,-1.264 4.456,-2.999 6.106,-5.205c1.649,-2.206 2.9,-4.734 3.752,-7.585c0.852,-2.851 1.278,-5.873 1.278,-9.065l-0,-1.748c-0,-3.138 -0.426,-6.129 -1.278,-8.971c-0.852,-2.842 -2.112,-5.375 -3.779,-7.599c-1.668,-2.223 -3.717,-3.981 -6.147,-5.272c-0.214,-0.114 -0.432,-0.223 -0.652,-0.327c-0.242,-2.134 -0.551,-4.249 -0.925,-6.34Zm-5.226,53.96c-0.48,0.032 -0.969,0.048 -1.468,0.048c-3.174,0 -5.98,-0.632 -8.419,-1.896c-2.439,-1.264 -4.487,-2.999 -6.146,-5.205c-1.659,-2.206 -2.914,-4.734 -3.766,-7.585c-0.852,-2.851 -1.278,-5.873 -1.278,-9.065l0,-1.748c0,-3.138 0.422,-6.129 1.265,-8.971c0.842,-2.842 2.098,-5.375 3.765,-7.599c1.668,-2.223 3.712,-3.981 6.133,-5.272c2.421,-1.291 5.2,-1.936 8.339,-1.936c2.877,-0 5.452,0.536 7.726,1.609c0.422,3.727 0.639,7.516 0.639,11.356c-0,12.788 -2.406,25.019 -6.79,36.264Zm-78.074,-24.16l41.504,-0l-0,-3.927c-0,-3.892 -0.502,-7.465 -1.506,-10.719c-1.005,-3.255 -2.488,-6.07 -4.452,-8.446c-1.964,-2.376 -4.375,-4.223 -7.236,-5.541c-2.86,-1.318 -6.137,-1.977 -9.831,-1.977c-3.317,-0 -6.473,0.685 -9.468,2.057c-2.995,1.372 -5.653,3.354 -7.975,5.945c-2.323,2.591 -4.152,5.698 -5.488,9.32c-1.336,3.622 -2.004,7.684 -2.004,12.185l0,2.313c0,4.16 0.641,7.985 1.924,11.472c1.282,3.488 3.093,6.505 5.433,9.052c2.34,2.546 5.102,4.519 8.285,5.917c3.183,1.399 6.675,2.098 10.477,2.098c3.478,0 6.527,-0.47 9.145,-1.412c2.618,-0.941 4.864,-2.197 6.738,-3.766c1.874,-1.569 3.447,-3.286 4.721,-5.151l-4.035,-3.12c-2.116,2.762 -4.506,4.779 -7.168,6.052c-2.663,1.273 -5.707,1.91 -9.132,1.91c-2.959,0 -5.658,-0.596 -8.097,-1.789c-2.439,-1.192 -4.541,-2.842 -6.307,-4.949c-1.767,-2.107 -3.13,-4.555 -4.089,-7.343c-0.959,-2.789 -1.439,-5.779 -1.439,-8.971l-0,-1.21Zm0.245,-5.514c0.217,-1.881 0.579,-3.656 1.086,-5.326c0.888,-2.923 2.148,-5.447 3.78,-7.572c1.631,-2.125 3.582,-3.766 5.85,-4.922c2.268,-1.157 4.774,-1.735 7.518,-1.735c3.658,-0 6.698,0.896 9.119,2.689c2.42,1.794 4.254,4.12 5.5,6.981c1.247,2.86 1.906,5.913 1.977,9.158l0,0.727l-34.83,-0Zm-21.548,-44.14l-6.591,-0l0,66.896l-45.081,-66.896l-6.671,-0l0,78.327l6.671,0l-0,-66.896l45.001,66.896l6.671,0l-0,-78.327Z"
            style="fill:#2734c0;" />
        <path
            d="M212.101,94.756c0.374,2.091 0.683,4.206 0.925,6.34c-2.274,-1.073 -4.849,-1.609 -7.726,-1.609c-3.139,-0 -5.918,0.645 -8.339,1.936c-2.421,1.291 -4.465,3.049 -6.133,5.272c-1.667,2.224 -2.923,4.757 -3.765,7.599c-0.843,2.842 -1.265,5.833 -1.265,8.971l0,1.748c0,3.192 0.426,6.214 1.278,9.065c0.852,2.851 2.107,5.379 3.766,7.585c1.659,2.206 3.707,3.941 6.146,5.205c2.439,1.264 5.245,1.896 8.419,1.896c0.499,0 0.988,-0.016 1.468,-0.048c-0.736,1.888 -1.527,3.747 -2.372,5.576c-3.588,-0.103 -6.855,-0.825 -9.801,-2.165c-3.192,-1.453 -5.931,-3.493 -8.218,-6.12c-2.286,-2.627 -4.043,-5.725 -5.272,-9.293c-1.228,-3.569 -1.842,-7.469 -1.842,-11.701l-0,-1.748c-0,-4.232 0.614,-8.137 1.842,-11.715c1.229,-3.577 2.977,-6.679 5.245,-9.306c2.269,-2.627 4.999,-4.667 8.191,-6.12c3.192,-1.452 6.742,-2.178 10.652,-2.178c2.405,-0 4.672,0.27 6.801,0.81Zm-5.226,53.96c4.384,-11.245 6.79,-23.476 6.79,-36.264c-0,-3.84 -0.217,-7.629 -0.639,-11.356c0.22,0.104 0.438,0.213 0.652,0.327c2.43,1.291 4.479,3.049 6.147,5.272c1.667,2.224 2.927,4.757 3.779,7.599c0.852,2.842 1.278,5.833 1.278,8.971l-0,1.748c-0,3.192 -0.426,6.214 -1.278,9.065c-0.852,2.851 -2.103,5.379 -3.752,7.585c-1.65,2.206 -3.685,3.941 -6.106,5.205c-2.037,1.063 -4.327,1.68 -6.871,1.848Zm-99.377,-73.814l-0,78.327l-6.671,0l-45.001,-66.896l-0,66.896l-6.671,0l0,-78.327l6.671,-0l45.081,66.896l0,-66.896l6.591,-0Zm21.303,49.654l-0,1.21c-0,3.192 0.48,6.182 1.439,8.971c0.959,2.788 2.322,5.236 4.089,7.343c1.766,2.107 3.868,3.757 6.307,4.949c2.439,1.193 5.138,1.789 8.097,1.789c3.425,0 6.469,-0.637 9.132,-1.91c2.662,-1.273 5.052,-3.29 7.168,-6.052l4.035,3.12c-1.274,1.865 -2.847,3.582 -4.721,5.151c-1.874,1.569 -4.12,2.825 -6.738,3.766c-2.618,0.942 -5.667,1.412 -9.145,1.412c-3.802,0 -7.294,-0.699 -10.477,-2.098c-3.183,-1.398 -5.945,-3.371 -8.285,-5.917c-2.34,-2.547 -4.151,-5.564 -5.433,-9.052c-1.283,-3.487 -1.924,-7.312 -1.924,-11.472l0,-2.313c0,-4.501 0.668,-8.563 2.004,-12.185c1.336,-3.622 3.165,-6.729 5.488,-9.32c2.322,-2.591 4.98,-4.573 7.975,-5.945c2.995,-1.372 6.151,-2.057 9.468,-2.057c3.694,-0 6.971,0.659 9.831,1.977c2.861,1.318 5.272,3.165 7.236,5.541c1.964,2.376 3.447,5.191 4.452,8.446c1.004,3.254 1.506,6.827 1.506,10.719l-0,3.927l-41.504,-0Zm0.245,-5.514l34.83,-0l0,-0.727c-0.071,-3.245 -0.73,-6.298 -1.977,-9.158c-1.246,-2.861 -3.08,-5.187 -5.5,-6.981c-2.421,-1.793 -5.461,-2.689 -9.119,-2.689c-2.744,-0 -5.25,0.578 -7.518,1.735c-2.268,1.156 -4.219,2.797 -5.85,4.922c-1.632,2.125 -2.892,4.649 -3.78,7.572c-0.507,1.67 -0.869,3.445 -1.086,5.326Z"
            style="fill:#fff;" />
    </g>
</svg>
