<?xml version="1.0" encoding="UTF-8" standalone="no"?><!DOCTYPE svg PUBLIC "-//W3C//DTD SVG 1.1//EN" "http://www.w3.org/Graphics/SVG/1.1/DTD/svg11.dtd"><svg width="100%" height="100%" viewBox="0 0 256 256" version="1.1" xmlns="http://www.w3.org/2000/svg" xmlns:xlink="http://www.w3.org/1999/xlink" xml:space="preserve" xmlns:serif="http://www.serif.com/" style="fill-rule:evenodd;clip-rule:evenodd;stroke-linejoin:round;stroke-miterlimit:2;"><rect id="Artboard1" x="0" y="0" width="256" height="256" style="fill:none;"/><g><path d="M209.992,169.841c-15.849,34.314 -50.577,58.149 -90.828,58.149c-55.186,-0 -99.99,-44.804 -99.99,-99.99c-0,-55.186 44.804,-99.99 99.99,-99.99c49.148,0 90.061,35.536 98.426,82.294c-2.129,-0.54 -4.396,-0.81 -6.801,-0.81c-3.91,-0 -7.46,0.726 -10.652,2.179c-3.192,1.452 -5.922,3.492 -8.191,6.119c-2.268,2.627 -4.016,5.729 -5.245,9.307c-1.228,3.577 -1.842,7.482 -1.842,11.714l-0,1.748c-0,4.232 0.614,8.133 1.842,11.701c1.229,3.569 2.986,6.667 5.272,9.294c2.287,2.627 5.026,4.666 8.218,6.119c2.946,1.341 6.213,2.063 9.801,2.166Zm7.598,-59.537c1.362,0.346 2.668,0.802 3.918,1.369c3.2,1.452 5.944,3.492 8.23,6.119c2.287,2.627 4.04,5.729 5.259,9.307c1.219,3.577 1.829,7.482 1.829,11.714l0,1.748c0,4.232 -0.61,8.133 -1.829,11.701c-1.219,3.569 -2.968,6.667 -5.245,9.294c-2.278,2.627 -5.008,4.666 -8.191,6.119c-3.183,1.452 -6.738,2.179 -10.665,2.179c-0.303,-0 -0.605,-0.005 -0.904,-0.013c0.845,-1.83 1.636,-3.689 2.372,-5.576c2.544,-0.169 4.834,-0.785 6.871,-1.849c2.42,-1.264 4.456,-2.999 6.106,-5.204c1.649,-2.206 2.9,-4.735 3.752,-7.586c0.852,-2.851 1.278,-5.873 1.278,-9.065l-0,-1.748c-0,-3.138 -0.426,-6.128 -1.278,-8.97c-0.852,-2.843 -2.112,-5.376 -3.779,-7.599c-1.668,-2.224 -3.717,-3.981 -6.147,-5.272c-0.214,-0.114 -0.432,-0.223 -0.652,-0.327c-0.242,-2.135 -0.551,-4.249 -0.925,-6.341Zm-5.226,53.961c-0.48,0.032 -0.969,0.048 -1.468,0.048c-3.174,-0 -5.98,-0.632 -8.419,-1.897c-2.439,-1.264 -4.488,-2.999 -6.146,-5.204c-1.659,-2.206 -2.914,-4.735 -3.766,-7.586c-0.852,-2.851 -1.278,-5.873 -1.278,-9.065l0,-1.748c0,-3.138 0.422,-6.128 1.265,-8.97c0.842,-2.843 2.098,-5.376 3.765,-7.599c1.668,-2.224 3.712,-3.981 6.133,-5.272c2.421,-1.291 5.2,-1.937 8.339,-1.937c2.877,0 5.452,0.537 7.726,1.61c0.422,3.727 0.639,7.516 0.639,11.355c-0,12.789 -2.406,25.02 -6.79,36.265Zm-78.074,-24.161l41.504,0l-0,-3.927c-0,-3.891 -0.502,-7.464 -1.506,-10.719c-1.005,-3.255 -2.488,-6.07 -4.452,-8.446c-1.964,-2.376 -4.375,-4.223 -7.236,-5.541c-2.86,-1.318 -6.137,-1.977 -9.831,-1.977c-3.317,-0 -6.473,0.686 -9.468,2.058c-2.995,1.372 -5.653,3.353 -7.976,5.944c-2.322,2.591 -4.151,5.698 -5.487,9.32c-1.336,3.623 -2.004,7.684 -2.004,12.185l0,2.314c0,4.16 0.641,7.984 1.924,11.472c1.282,3.488 3.093,6.505 5.433,9.051c2.34,2.546 5.102,4.519 8.285,5.918c3.183,1.398 6.675,2.098 10.477,2.098c3.478,-0 6.527,-0.471 9.145,-1.412c2.618,-0.942 4.864,-2.197 6.738,-3.766c1.874,-1.569 3.447,-3.286 4.721,-5.151l-4.035,-3.12c-2.116,2.761 -4.506,4.778 -7.169,6.052c-2.662,1.273 -5.706,1.909 -9.131,1.909c-2.959,0 -5.658,-0.596 -8.097,-1.788c-2.439,-1.193 -4.541,-2.843 -6.307,-4.95c-1.767,-2.107 -3.13,-4.554 -4.089,-7.343c-0.959,-2.788 -1.439,-5.778 -1.439,-8.97l-0,-1.211Zm0.245,-5.514c0.217,-1.881 0.579,-3.656 1.086,-5.326c0.888,-2.923 2.148,-5.447 3.78,-7.572c1.631,-2.125 3.582,-3.765 5.85,-4.922c2.268,-1.157 4.774,-1.735 7.518,-1.735c3.658,0 6.698,0.897 9.119,2.69c2.42,1.793 4.254,4.12 5.5,6.98c1.247,2.86 1.906,5.913 1.977,9.159l0,0.726l-34.83,0Zm-21.549,-44.14l-6.59,0l0,66.896l-45.081,-66.896l-6.671,0l0,78.328l6.671,-0l-0,-66.896l45.001,66.896l6.67,-0l0,-78.328Z" style="fill:#2734c0;"/><path d="M217.59,110.304c0.374,2.092 0.683,4.206 0.925,6.341c-2.274,-1.073 -4.849,-1.61 -7.726,-1.61c-3.139,0 -5.918,0.646 -8.339,1.937c-2.421,1.291 -4.465,3.048 -6.133,5.272c-1.667,2.223 -2.923,4.756 -3.765,7.599c-0.843,2.842 -1.265,5.832 -1.265,8.97l0,1.748c0,3.192 0.426,6.214 1.278,9.065c0.852,2.851 2.107,5.38 3.766,7.586c1.658,2.205 3.707,3.94 6.146,5.204c2.439,1.265 5.245,1.897 8.419,1.897c0.499,-0 0.988,-0.016 1.468,-0.048c-0.736,1.887 -1.527,3.746 -2.372,5.576c-3.588,-0.103 -6.855,-0.825 -9.801,-2.166c-3.192,-1.453 -5.931,-3.492 -8.218,-6.119c-2.286,-2.627 -4.043,-5.725 -5.272,-9.294c-1.228,-3.568 -1.842,-7.469 -1.842,-11.701l-0,-1.748c-0,-4.232 0.614,-8.137 1.842,-11.714c1.229,-3.578 2.977,-6.68 5.245,-9.307c2.269,-2.627 4.999,-4.667 8.191,-6.119c3.192,-1.453 6.742,-2.179 10.652,-2.179c2.405,-0 4.672,0.27 6.801,0.81Zm-5.226,53.961c4.384,-11.245 6.79,-23.476 6.79,-36.265c-0,-3.839 -0.217,-7.628 -0.639,-11.355c0.22,0.104 0.438,0.213 0.652,0.327c2.43,1.291 4.479,3.048 6.147,5.272c1.667,2.223 2.927,4.756 3.779,7.599c0.852,2.842 1.278,5.832 1.278,8.97l-0,1.748c-0,3.192 -0.426,6.214 -1.278,9.065c-0.852,2.851 -2.103,5.38 -3.752,7.586c-1.65,2.205 -3.686,3.94 -6.106,5.204c-2.037,1.064 -4.327,1.68 -6.871,1.849Zm-99.378,-73.815l0,78.328l-6.67,-0l-45.001,-66.896l-0,66.896l-6.671,-0l0,-78.328l6.671,0l45.081,66.896l0,-66.896l6.59,0Zm21.304,49.654l-0,1.211c-0,3.192 0.48,6.182 1.439,8.97c0.959,2.789 2.322,5.236 4.089,7.343c1.766,2.107 3.868,3.757 6.307,4.95c2.439,1.192 5.138,1.788 8.097,1.788c3.425,0 6.469,-0.636 9.131,-1.909c2.663,-1.274 5.053,-3.291 7.169,-6.052l4.035,3.12c-1.274,1.865 -2.847,3.582 -4.721,5.151c-1.874,1.569 -4.12,2.824 -6.738,3.766c-2.618,0.941 -5.667,1.412 -9.145,1.412c-3.802,-0 -7.294,-0.7 -10.477,-2.098c-3.183,-1.399 -5.945,-3.372 -8.285,-5.918c-2.34,-2.546 -4.151,-5.563 -5.433,-9.051c-1.283,-3.488 -1.924,-7.312 -1.924,-11.472l0,-2.314c0,-4.501 0.668,-8.562 2.004,-12.185c1.336,-3.622 3.165,-6.729 5.487,-9.32c2.323,-2.591 4.981,-4.572 7.976,-5.944c2.995,-1.372 6.151,-2.058 9.468,-2.058c3.694,-0 6.971,0.659 9.831,1.977c2.861,1.318 5.272,3.165 7.236,5.541c1.964,2.376 3.447,5.191 4.452,8.446c1.004,3.255 1.506,6.828 1.506,10.719l-0,3.927l-41.504,0Zm0.245,-5.514l34.83,0l0,-0.726c-0.071,-3.246 -0.73,-6.299 -1.977,-9.159c-1.246,-2.86 -3.08,-5.187 -5.5,-6.98c-2.421,-1.793 -5.461,-2.69 -9.119,-2.69c-2.744,0 -5.25,0.578 -7.518,1.735c-2.268,1.157 -4.219,2.797 -5.85,4.922c-1.632,2.125 -2.892,4.649 -3.78,7.572c-0.507,1.67 -0.869,3.445 -1.086,5.326Z" style="fill:#fff;"/></g></svg>